<svg xmlns="http://www.w3.org/2000/svg" xmlns:xlink="http://www.w3.org/1999/xlink" aria-hidden="true" focusable="false" width="1em" height="1em" style="-ms-transform: rotate(360deg); -webkit-transform: rotate(360deg); transform: rotate(360deg);" preserveAspectRatio="xMidYMid meet" viewBox="0 0 16 16"><g fill="#626262"><path fill-rule="evenodd" clip-rule="evenodd" d="M1.5 2h13l.5.5v5.503a5.006 5.006 0 0 0-1-.583V3H2v9h5a5 5 0 0 0 1 3H4v-1h3v-1H1.5l-.5-.5v-10l.5-.5z"/><path fill-rule="evenodd" clip-rule="evenodd" d="M9.778 8.674a4 4 0 1 1 4.444 6.652a4 4 0 0 1-4.444-6.652zm2.13 4.99l2.387-3.182l-.8-.6l-2.077 2.769l-1.301-1.041l-.625.78l1.704 1.364l.713-.09z"/></g><rect x="0" y="0" width="16" height="16" fill="rgba(0, 0, 0, 0)" /></svg>